<svg id="Layer_1" data-name="Layer 1" xmlns="http://www.w3.org/2000/svg" viewBox="0 0 498 498"><defs><style>.cls-1{fill:#fff;}</style></defs><title>main-play-button</title><path class="cls-1" d="M791,275a238.24,238.24,0,1,1-93,18.78A237.51,237.51,0,0,1,791,275m0-10c-137.52,0-249,111.48-249,249S653.48,763,791,763s249-111.48,249-249S928.52,265,791,265Z" transform="translate(-542 -265)"/><path class="cls-1" d="M711,381.16,825.09,447l114.1,65.87-114.1,65.87L711,644.65V381.16m-10-17.32V662l129.09-74.53,129.1-74.53-129.1-74.53L701,363.84Z" transform="translate(-542 -265)"/></svg>